<svg enable-background="new 0 0 520 520" height="512" viewBox="0 0 520 520"
     width="512" xmlns="http://www.w3.org/2000/svg">
    <g id="_x31_33_x2C__Global_Delivery_x2C__Global_Logistic_x2C__Global_Shipping_x2C__Cross_Cancel">
        <g>
            <path d="m359 439.32c0 21.35-17.311 38.67-38.67 38.67-21.35 0-38.66-17.32-38.66-38.67 0-21.497 17.48-38.67 38.66-38.67 21.212 0 38.67 17.201 38.67 38.67z"
                  fill="#fff"/>
            <path d="m180 406.4c11.03 6.819 18.38 19 18.38 32.92 0 21.35-17.31 38.67-38.66 38.67-21.36 0-38.67-17.32-38.67-38.67 0-21.417 17.409-38.67 38.67-38.67 7.43 0 14.38 2.109 20.27 5.75z"
                  fill="#fff"/>
            <path d="m461 122.5c11.05 0 20 8.95 20 20 0 5.52-2.24 10.52-5.859 14.14-3.621 3.62-8.621 5.86-14.141 5.86h-20c-11.05 0-20-8.95-20-20s8.95-20 20-20z"
                  fill="#9bc9ff"/>
            <path d="m411 37.5c13.81 0 25 11.19 25 25s-11.19 25-25 25c-13.811 0-25-11.19-25-25s11.189-25 25-25z"
                  fill="#9bc9ff"/>
            <path d="m81 112.5c11.05 0 20 8.95 20 20s-8.95 20-20 20-20-8.95-20-20 8.95-20 20-20z"
                  fill="#9bc9ff"/>
            <path d="m324.88 431.94c2.47 1.529 4.12 4.26 4.12 7.38 0 4.79-3.88 8.67-8.67 8.67-4.78 0-8.66-3.88-8.66-8.67 0-3.12 1.65-5.851 4.12-7.38 1.319-.82 2.88-1.29 4.54-1.29 1.67 0 3.23.48 4.55 1.29z"
                  fill="#9bc9ff"/>
            <path d="m164.26 431.94c2.48 1.529 4.12 4.26 4.12 7.38 0 4.79-3.88 8.67-8.66 8.67-4.79 0-8.67-3.88-8.67-8.67 0-3.12 1.65-5.851 4.12-7.38 1.32-.82 2.88-1.29 4.55-1.29 1.66 0 3.22.48 4.54 1.29z"
                  fill="#9bc9ff"/>
            <path d="m211 52.5c38.66 0 70 31.34 70 70s-31.34 70-70 70-70-31.34-70-70 31.34-70 70-70z"
                  fill="#fff"/>
            <path d="m244.59 88.91c3.9 3.91 3.9 10.24 0 14.14l-19.45 19.45 19.45 19.45c1.95 1.95 2.93 4.51 2.93 7.07s-.98 5.12-2.93 7.07c-3.91 3.9-10.24 3.9-14.14 0l-19.45-19.45-19.45 19.45c-1.95 1.95-4.51 2.93-7.07 2.93s-5.12-.98-7.07-2.93c-3.9-3.91-3.9-10.24 0-14.14l19.45-19.45-19.45-19.45c-3.9-3.9-3.9-10.23 0-14.14 3.91-3.9 10.24-3.9 14.14 0l19.45 19.45 19.45-19.45c3.9-3.9 10.23-3.9 14.14 0z"
                  fill="#9bc9ff"/>
            <g fill="#1e81ce">
                <circle cx="438.5" cy="345" r="7.5"/>
                <circle cx="423.5" cy="230" r="7.5"/>
                <circle cx="363.5" cy="125" r="7.5"/>
                <circle cx="298.5" cy="45" r="7.5"/>
                <circle cx="113.5" cy="60" r="7.5"/>
                <circle cx="48.5" cy="350" r="7.5"/>
                <path d="m184.48 164.02c-4.006 0-7.773-1.561-10.606-4.395-5.842-5.856-5.84-15.37.001-21.21l15.914-15.915-15.915-15.915c-5.841-5.84-5.843-15.354-.004-21.207 2.843-2.836 6.609-4.394 10.613-4.394 4.006 0 7.771 1.559 10.601 4.39l15.916 15.915 15.915-15.915c2.83-2.831 6.596-4.39 10.602-4.39 4.004 0 7.77 1.558 10.605 4.386 5.847 5.861 5.845 15.375.004 21.215l-15.915 15.915 15.915 15.915c2.834 2.833 4.395 6.6 4.395 10.605 0 4.006-1.561 7.772-4.395 10.606-2.839 2.831-6.605 4.389-10.609 4.389-4.006 0-7.771-1.559-10.602-4.39l-15.915-15.914-15.915 15.915c-2.833 2.833-6.599 4.394-10.605 4.394zm.004-73.035c-1.337 0-2.595.521-3.543 1.465-1.94 1.945-1.942 5.118.004 7.064l19.45 19.45c1.953 1.953 1.953 5.119 0 7.071l-19.45 19.45c-1.947 1.946-1.945 5.119.004 7.073.941.941 2.196 1.461 3.53 1.461s2.589-.521 3.534-1.465l19.451-19.45c1.953-1.952 5.118-1.952 7.071 0l19.45 19.45c.942.942 2.196 1.461 3.53 1.461 1.337 0 2.595-.521 3.542-1.465.941-.941 1.461-2.196 1.461-3.53s-.521-2.589-1.465-3.534l-19.45-19.451c-1.953-1.953-1.953-5.119 0-7.071l19.45-19.45c1.947-1.946 1.945-5.119-.004-7.073-.939-.936-2.197-1.456-3.534-1.456-1.335 0-2.588.519-3.53 1.46l-19.45 19.45c-1.953 1.952-5.118 1.952-7.071 0l-19.45-19.45c-.942-.942-2.196-1.46-3.53-1.46z"/>
                <path d="m139.44 411.4h-78.49c-2.761 0-5-2.238-5-5s2.239-5 5-5h78.49c2.761 0 5 2.238 5 5s-2.239 5-5 5z"/>
                <path d="m300.06 411.4h-120.06c-2.761 0-5-2.238-5-5s2.239-5 5-5h120.06c2.761 0 5 2.238 5 5s-2.239 5-5 5z"/>
                <path d="m115.82 367.5h-21.95c-2.761 0-5-2.238-5-5s2.239-5 5-5h21.95c2.761 0 5 2.238 5 5s-2.239 5-5 5z"/>
                <path d="m390.18 411.4h-49.57c-2.761 0-5-2.238-5-5s2.239-5 5-5h49.57c9.347 0 16.95-7.603 16.95-16.95 0-4.526-1.764-8.782-4.966-11.985-3.201-3.201-7.458-4.965-11.984-4.965h-1.18c-2.762 0-5-2.238-5-5s2.238-5 5-5h1.18c7.197 0 13.965 2.804 19.056 7.894 5.091 5.093 7.895 11.86 7.895 19.057-.001 14.859-12.09 26.949-26.951 26.949z"/>
                <path d="m320.33 482.99c-24.074 0-43.66-19.59-43.66-43.67 0-15.258 7.763-29.155 20.766-37.176 6.872-4.248 14.791-6.494 22.895-6.494 8.1 0 16.02 2.246 22.905 6.495 13.002 8.027 20.764 21.924 20.764 37.175 0 24.08-19.59 43.67-43.67 43.67zm0-77.34c-6.246 0-12.346 1.73-17.641 5.003-10.033 6.189-16.02 16.903-16.02 28.667 0 18.565 15.1 33.67 33.66 33.67 18.565 0 33.67-15.104 33.67-33.67 0-11.758-5.987-22.474-16.017-28.665-5.304-3.274-11.409-5.005-17.652-5.005z"/>
                <path d="m159.72 482.99c-24.08 0-43.67-19.59-43.67-43.67 0-15.251 7.762-29.147 20.764-37.175 6.887-4.249 14.807-6.495 22.907-6.495 8.027 0 15.873 2.204 22.704 6.377.069.038.138.078.205.12 12.993 8.033 20.751 21.93 20.751 37.173-.001 24.08-19.587 43.67-43.661 43.67zm0-77.34c-6.243 0-12.348 1.73-17.655 5.005-10.028 6.191-16.016 16.907-16.016 28.665 0 18.565 15.104 33.67 33.67 33.67 18.56 0 33.66-15.104 33.66-33.67 0-11.686-5.916-22.346-15.837-28.56-.061-.034-.122-.07-.182-.107-5.294-3.272-11.394-5.003-17.64-5.003z"/>
                <path d="m159.72 452.99c-7.538 0-13.67-6.132-13.67-13.67 0-4.768 2.425-9.115 6.488-11.631 4.264-2.65 9.988-2.681 14.339-.01 4.075 2.513 6.503 6.862 6.503 11.641 0 7.538-6.128 13.67-13.66 13.67zm0-17.34c-.685 0-1.346.186-1.912.537-1.104.684-1.759 1.853-1.759 3.133 0 2.023 1.646 3.67 3.67 3.67 2.018 0 3.66-1.646 3.66-3.67 0-1.282-.652-2.45-1.744-3.124-.578-.355-1.243-.546-1.915-.546z"/>
                <path d="m320.33 452.99c-7.532 0-13.66-6.132-13.66-13.67 0-4.768 2.426-9.116 6.488-11.631 4.27-2.653 9.998-2.674 14.338-.01 4.078 2.524 6.504 6.873 6.504 11.641 0 7.538-6.133 13.67-13.67 13.67zm0-17.34c-.679 0-1.336.186-1.9.537-1.105.684-1.76 1.853-1.76 3.133 0 2.023 1.643 3.67 3.66 3.67 2.023 0 3.67-1.646 3.67-3.67 0-1.28-.654-2.449-1.752-3.129-.571-.35-1.24-.541-1.918-.541z"/>
                <path d="m389 197.5c-2.762 0-5-2.239-5-5v-50c0-2.761 2.238-5 5-5h32c2.762 0 5 2.239 5 5s-2.238 5-5 5h-27v45c0 2.761-2.238 5-5 5z"/>
                <path d="m445.05 487.5h-356.05c-2.761 0-5-2.238-5-5s2.239-5 5-5h356.05c2.761 0 5 2.238 5 5s-2.24 5-5 5z"/>
                <path d="m389 367.5h-273.18c-1.965 0-3.747-1.15-4.556-2.941l-76.82-169.999c-.699-1.547-.565-3.344.355-4.77.921-1.427 2.502-2.289 4.201-2.289h350c2.762 0 5 2.239 5 5v170c0 2.761-2.238 4.999-5 4.999zm-269.953-10h264.953v-160h-337.254z"/>
                <path d="m461 167.5h-20c-13.785 0-25-11.215-25-25s11.215-25 25-25h20c13.785 0 25 11.215 25 25 0 6.674-2.602 12.952-7.324 17.675-4.725 4.724-11.002 7.325-17.676 7.325zm-20-40c-8.272 0-15 6.729-15 15s6.728 15 15 15h20c4.004 0 7.77-1.561 10.605-4.395 2.834-2.835 4.395-6.601 4.395-10.605 0-8.271-6.729-15-15-15z"/>
                <path d="m389 247.5h-260c-2.761 0-5-2.239-5-5s2.239-5 5-5h260c2.762 0 5 2.239 5 5s-2.238 5-5 5z"/>
                <path d="m389 287.5h-240c-2.761 0-5-2.238-5-5s2.239-5 5-5h240c2.762 0 5 2.238 5 5s-2.238 5-5 5z"/>
                <path d="m389 327.5h-220c-2.761 0-5-2.238-5-5s2.239-5 5-5h220c2.762 0 5 2.238 5 5s-2.238 5-5 5z"/>
                <path d="m259.004 367.501c-1.877 0-3.676-1.061-4.528-2.872l-80-170c-1.176-2.499-.104-5.477 2.395-6.653 2.5-1.177 5.477-.104 6.653 2.395l80 170c1.175 2.499.103 5.478-2.395 6.653-.688.324-1.412.477-2.125.477z"/>
                <path d="m209.003 367.501c-1.877 0-3.676-1.061-4.528-2.872l-80-170c-1.176-2.499-.104-5.477 2.395-6.653 2.5-1.177 5.477-.104 6.653 2.395l80.001 170c1.175 2.499.103 5.478-2.396 6.653-.687.324-1.412.477-2.125.477z"/>
                <path d="m309.004 367.501c-1.877 0-3.676-1.061-4.528-2.872l-79.999-170c-1.176-2.499-.104-5.477 2.395-6.653 2.5-1.177 5.477-.104 6.653 2.395l80 170c1.175 2.499.103 5.478-2.395 6.653-.689.324-1.413.477-2.126.477z"/>
                <path d="m359.004 367.501c-1.877 0-3.676-1.061-4.528-2.872l-79.999-170c-1.176-2.499-.104-5.477 2.395-6.653 2.5-1.177 5.477-.104 6.652 2.395l80.001 170c1.175 2.499.103 5.478-2.396 6.653-.688.324-1.412.477-2.125.477z"/>
                <path d="m211 197.5c-41.355 0-75-33.645-75-75s33.645-75 75-75 75 33.645 75 75-33.645 75-75 75zm0-140c-35.841 0-65 29.159-65 65s29.159 65 65 65 65-29.159 65-65-29.159-65-65-65z"/>
                <path d="m411 92.5c-16.542 0-30-13.458-30-30s13.458-30 30-30 30 13.458 30 30-13.458 30-30 30zm0-50c-11.027 0-20 8.972-20 20s8.973 20 20 20 20-8.972 20-20-8.973-20-20-20z"/>
                <path d="m81 157.5c-13.785 0-25-11.215-25-25s11.215-25 25-25 25 11.215 25 25-11.215 25-25 25zm0-40c-8.271 0-15 6.729-15 15s6.729 15 15 15 15-6.729 15-15-6.729-15-15-15z"/>
            </g>
        </g>
    </g>
</svg>
