<svg enable-background="new 0 0 520 520" height="512" viewBox="0 0 520 520"
     width="512" xmlns="http://www.w3.org/2000/svg">
    <g id="_x37_6_x2C__Account_x2C__Authorize_x2C__Login_x2C__Security">
        <g>
            <path d="m263.167 80.165c-.017.049-.036.097-.054.146-35.912-2.559-70.204 10.849-94.718 36.078-.069-.039-.14-.075-.209-.114-45.684 47.079-45.14 122.105 1.341 168.495 21.721 21.763 51.753 35.23 84.935 35.23 63.29 0 115.13-48.99 119.67-111.13-.057-.02-.112-.042-.169-.061 4.966-67.106-45.631-123.883-110.796-128.644z"
                  fill="#9bc9ff"/>
            <path d="m302.811 178.53h-4.819-84.711-4.819c-6.431 0-11.65 5.21-11.65 11.65v73.169c0 6.44 5.22 11.65 11.65 11.65h94.35c6.431 0 11.65-5.21 11.65-11.65v-73.169c0-6.44-5.22-11.65-11.651-11.65z"
                  fill="#fff"/>
            <path d="m399.462 320c41.42 0 75 33.58 75 75 0 41.493-33.661 75-75 75h-290c-41.42 0-75-33.58-75-75 0-41.491 33.66-75 75-75z"
                  fill="#fff"/>
            <path d="m444.462 250c11.04 0 20 8.95 20 20s-8.96 20-20 20c-11.05 0-20-8.95-20-20s8.95-20 20-20z"
                  fill="#9bc9ff"/>
            <circle cx="74.462" cy="110" fill="#9bc9ff" r="30"/>
            <path d="m219.842 199.44h71.59v54.64h-71.59z" fill="#9bc9ff"/>
            <path d="m460.26 158.818c.841-4.396 1.117-7.991 1.182-12.408v-.001c-.23-.895 1.558-25.868-19.44-46.769l.001-.001c-26.052-25.906-67.809-25.401-93.315.225l-.006-.005c-9.388 9.388-16.342 22.212-18.512 36.911-6.182 42.202 28.69 79.316 71.499 75.329 29.641-2.77 53.226-24.991 58.591-53.281z"
                  fill="#9bc9ff"/>
            <path d="m481.162 81.69c5.85 5.86 5.85 15.35 0 21.2l-23 23-35.31 35.31-21.2 21.2-21.199-21.2-10.61-10.6c-2.93-2.92-4.39-6.76-4.39-10.6s1.46-7.68 4.39-10.6c5.86-5.86 15.35-5.86 21.2 0l10.609 10.6 40.351-40.36 17.95-17.95c2.93-2.93 6.77-4.39 10.6-4.39 3.839 0 7.678 1.46 10.609 4.39z"
                  fill="#fff"/>
            <g fill="#1e81ce">
                <circle cx="471.962" cy="212.5" r="7.5"/>
                <circle cx="391.962" cy="277.5" r="7.5"/>
                <circle cx="341.962" cy="52.5" r="7.5"/>
                <circle cx="131.962" cy="52.5" r="7.5"/>
                <circle cx="106.962" cy="277.5" r="7.5"/>
                <circle cx="56.962" cy="192.5" r="7.5"/>
                <path d="m297.992 183.53c-2.762 0-5-2.239-5-5v-21.18c0-20.595-16.76-37.35-37.36-37.35-20.595 0-37.35 16.755-37.35 37.35v21.18c0 2.761-2.238 5-5 5-2.761 0-5-2.239-5-5v-21.18c0-26.109 21.241-47.35 47.35-47.35 26.114 0 47.36 21.241 47.36 47.35v21.18c0 2.761-2.239 5-5 5z"/>
                <path d="m291.432 259.08h-71.59c-2.762 0-5-2.239-5-5v-54.64c0-2.761 2.238-5 5-5h71.59c2.762 0 5 2.239 5 5v54.64c0 2.761-2.239 5-5 5zm-66.59-10h61.59v-44.64h-61.59z"/>
                <path d="m302.811 280h-94.35c-9.181 0-16.65-7.469-16.65-16.65v-73.17c0-9.181 7.47-16.65 16.65-16.65h94.35c9.181 0 16.65 7.469 16.65 16.65v73.169c.001 9.182-7.469 16.651-16.65 16.651zm-94.349-96.47c-3.667 0-6.65 2.983-6.65 6.65v73.169c0 3.667 2.983 6.65 6.65 6.65h94.35c3.667 0 6.65-2.983 6.65-6.65v-73.169c0-3.667-2.983-6.65-6.65-6.65z"/>
                <path d="m134.462 400h-60c-2.762 0-5-2.238-5-5s2.238-5 5-5h60c2.761 0 5 2.238 5 5s-2.239 5-5 5z"/>
                <path d="m83.242 421.21c-1.28 0-2.561-.488-3.536-1.465-1.952-1.953-1.952-5.119.001-7.071l42.429-42.419c1.953-1.953 5.118-1.953 7.071 0 1.953 1.952 1.953 5.118 0 7.07l-42.431 42.421c-.975.976-2.255 1.464-3.534 1.464z"/>
                <path d="m125.672 421.21c-1.28 0-2.56-.488-3.536-1.465l-42.429-42.419c-1.953-1.952-1.953-5.118-.001-7.071 1.951-1.953 5.118-1.952 7.07-.001l42.431 42.421c1.953 1.952 1.953 5.118 0 7.07-.977.977-2.256 1.465-3.535 1.465z"/>
                <path d="m104.462 430c-2.762 0-5-2.238-5-5v-60c0-2.762 2.238-5 5-5 2.761 0 5 2.238 5 5v60c0 2.762-2.239 5-5 5z"/>
                <path d="m214.462 400h-60c-2.762 0-5-2.238-5-5s2.238-5 5-5h60c2.761 0 5 2.238 5 5s-2.239 5-5 5z"/>
                <path d="m163.242 421.21c-1.28 0-2.561-.488-3.536-1.465-1.952-1.953-1.952-5.119.001-7.071l42.429-42.419c1.953-1.953 5.118-1.953 7.071 0 1.953 1.952 1.953 5.118 0 7.07l-42.431 42.421c-.975.976-2.255 1.464-3.534 1.464z"/>
                <path d="m205.672 421.21c-1.28 0-2.56-.488-3.536-1.465l-42.429-42.419c-1.953-1.952-1.953-5.118-.001-7.071 1.951-1.953 5.118-1.952 7.07-.001l42.431 42.421c1.953 1.952 1.953 5.118 0 7.07-.977.977-2.256 1.465-3.535 1.465z"/>
                <path d="m184.462 430c-2.762 0-5-2.238-5-5v-60c0-2.762 2.238-5 5-5 2.761 0 5 2.238 5 5v60c0 2.762-2.239 5-5 5z"/>
                <path d="m294.462 400h-60c-2.762 0-5-2.238-5-5s2.238-5 5-5h60c2.761 0 5 2.238 5 5s-2.239 5-5 5z"/>
                <path d="m243.242 421.21c-1.28 0-2.561-.488-3.536-1.465-1.952-1.953-1.952-5.119.001-7.071l42.429-42.419c1.953-1.953 5.118-1.953 7.071 0 1.953 1.952 1.953 5.118 0 7.07l-42.431 42.421c-.975.976-2.255 1.464-3.534 1.464z"/>
                <path d="m285.672 421.21c-1.28 0-2.56-.488-3.536-1.465l-42.429-42.419c-1.953-1.952-1.953-5.118-.001-7.071 1.951-1.953 5.118-1.952 7.07-.001l42.431 42.421c1.953 1.952 1.953 5.118 0 7.07-.977.977-2.256 1.465-3.535 1.465z"/>
                <path d="m264.462 430c-2.762 0-5-2.238-5-5v-60c0-2.762 2.238-5 5-5 2.761 0 5 2.238 5 5v60c0 2.762-2.239 5-5 5z"/>
                <path d="m374.462 400h-60c-2.762 0-5-2.238-5-5s2.238-5 5-5h60c2.761 0 5 2.238 5 5s-2.239 5-5 5z"/>
                <path d="m323.252 421.21c-1.28 0-2.56-.488-3.536-1.465-1.952-1.952-1.952-5.118 0-7.07l42.42-42.42c1.953-1.953 5.118-1.953 7.071 0 1.953 1.952 1.953 5.118 0 7.07l-42.42 42.42c-.977.977-2.256 1.465-3.535 1.465z"/>
                <path d="m365.672 421.21c-1.28 0-2.56-.488-3.536-1.465l-42.42-42.42c-1.952-1.952-1.952-5.118 0-7.07 1.953-1.953 5.118-1.953 7.071 0l42.42 42.42c1.953 1.952 1.953 5.118 0 7.07-.977.977-2.256 1.465-3.535 1.465z"/>
                <path d="m344.462 430c-2.762 0-5-2.238-5-5v-60c0-2.762 2.238-5 5-5 2.761 0 5 2.238 5 5v60c0 2.762-2.239 5-5 5z"/>
                <path d="m399.462 475h-290c-44.112 0-80-35.888-80-80 0-21.376 8.323-41.465 23.436-56.567 15.111-15.111 35.2-23.433 56.564-23.433h290c44.112 0 80 35.888 80 80 0 21.376-8.323 41.465-23.435 56.567-15.113 15.111-35.201 23.433-56.565 23.433zm-290-150c-18.693 0-36.271 7.282-49.494 20.505-13.225 13.215-20.506 30.792-20.506 49.495 0 38.598 31.401 70 70 70h290c18.693 0 36.271-7.282 49.494-20.506 13.224-13.214 20.506-30.791 20.506-49.494 0-38.598-31.402-70-70-70z"/>
                <path d="m254.462 325c-68.926 0-125-56.075-125-125s56.074-125 125-125c32.671 0 63.583 12.537 87.042 35.302l-3.473 3.598-3.535 3.536-.01-.01c-21.529-20.892-49.968-32.426-80.024-32.426-63.411 0-115 51.589-115 115s51.589 115 115 115c59.931 0 110.296-46.758 114.68-106.453.167-2.611 2.337-4.682 4.99-4.682 2.761 0 5 2.233 5 4.995 0 .122-.005.253-.014.375-2.295 31.416-16.28 60.594-39.378 82.158-23.214 21.672-53.5 33.607-85.278 33.607z"/>
                <path d="m401.651 187.4c-1.279 0-2.559-.488-3.535-1.464l-31.809-31.798c-3.774-3.762-5.855-8.784-5.855-14.137s2.081-10.376 5.859-14.142c3.773-3.772 8.795-5.854 14.134-5.854 5.341 0 10.361 2.082 14.135 5.862l7.069 7.063 54.767-54.776c3.775-3.775 8.795-5.854 14.136-5.854 5.347 0 10.37 2.079 14.146 5.854 7.789 7.802 7.787 20.483 0 28.271l-79.51 79.51c-.977.977-2.257 1.465-3.537 1.465zm-21.206-57.395c-2.668 0-5.179 1.041-7.068 2.931-1.889 1.882-2.925 4.389-2.925 7.064s1.036 5.183 2.919 7.059l28.28 28.271 75.975-75.975c3.893-3.892 3.891-10.232-.003-14.132-1.884-1.883-4.396-2.922-7.071-2.922-2.669 0-5.178 1.039-7.065 2.925l-58.3 58.31c-1.952 1.952-5.116 1.953-7.069.002l-10.61-10.6c-1.89-1.894-4.396-2.933-7.063-2.933z"/>
                <path d="m395.452 217.4c-7.857 0-15.575-1.278-22.939-3.799-28.738-9.797-48.051-36.8-48.051-67.19 0-12.275 3.186-24.374 9.212-34.989 12.603-22.206 36.275-36.002 61.778-36.002 18.892 0 36.676 7.343 50.076 20.676 1.958 1.948 1.966 5.113.018 7.071-1.947 1.959-5.114 1.966-7.07.018-11.514-11.456-26.793-17.765-43.023-17.765-21.911 0-42.251 11.855-53.082 30.938-5.174 9.114-7.908 19.505-7.908 30.052 0 26.11 16.59 49.309 41.283 57.727 6.326 2.166 12.954 3.262 19.707 3.262 33.63 0 60.989-27.36 60.989-60.99 0-6.453-1.02-12.833-3.03-18.962-.861-2.623.568-5.448 3.192-6.31 2.624-.857 5.448.568 6.31 3.192 2.341 7.136 3.528 14.565 3.528 22.079-.001 39.146-31.846 70.992-70.99 70.992z"/>
                <path d="m74.462 145c-19.299 0-35-15.701-35-35s15.701-35 35-35 35 15.701 35 35-15.701 35-35 35zm0-60c-13.785 0-25 11.215-25 25s11.215 25 25 25 25-11.215 25-25-11.215-25-25-25z"/>
                <path d="m444.462 295c-13.785 0-25-11.215-25-25s11.215-25 25-25 25 11.215 25 25-11.215 25-25 25zm0-40c-8.271 0-15 6.728-15 15s6.729 15 15 15 15-6.728 15-15-6.73-15-15-15z"/>
            </g>
        </g>
    </g>
</svg>
