<svg enable-background="new 0 0 520 520" height="512" viewBox="0 0 520 520"
     width="512" xmlns="http://www.w3.org/2000/svg">
    <g id="_x33_76_x2C__Control_x2C__Home_x2C__Smart_x2C__Network">
        <g>
            <path d="m112.5 386.25v-200h290v225c-12.533 0-277.351 0-290 0z"
                  fill="#fff"/>
            <path d="m54.41 186.25 203.09-140.62c2.379 1.647 200.068 138.527 203.09 140.62-18.072 0-386.088 0-406.18 0z"
                  fill="#9bc9ff"/>
            <path d="m344.93 282.11c7.811 7.809 7.811 20.47 0 28.279-7.81 7.811-20.479 7.811-28.289 0-7.811-7.809-7.811-20.47 0-28.279 7.809-7.81 20.479-7.81 28.289 0z"
                  fill="#9bc9ff"/>
            <path d="m256.64 226.25c11.049 0 20 8.95 20 20s-8.951 20-20 20c-11.04 0-20-8.95-20-20s8.96-20 20-20z"
                  fill="#9bc9ff"/>
            <circle cx="182.5" cy="296.25" fill="#9bc9ff" r="19.997"/>
            <path d="m452.5 221.25c13.81 0 25 11.19 25 25s-11.19 25-25 25c-13.811 0-25-11.19-25-25s11.189-25 25-25z"
                  fill="#9bc9ff"/>
            <path d="m62.5 341.25c11.05 0 20 8.95 20 20s-8.95 20-20 20-20-8.95-20-20 8.95-20 20-20z"
                  fill="#9bc9ff"/>
            <path d="m442.5 436.25v40h-370v-40z" fill="#fff"/>
            <path d="m417.5 411.25v25h-320v-25z" fill="#9bc9ff"/>
            <path d="m377.5 128.72v22.53h-35v-46.77-28.23h35z" fill="#fff"/>
            <g fill="#1e81ce">
                <circle cx="460" cy="128.75" r="7.5"/>
                <circle cx="440" cy="353.75" r="7.5"/>
                <circle cx="400" cy="46.25" r="7.5"/>
                <circle cx="170" cy="48.75" r="7.5"/>
                <circle cx="70" cy="118.75" r="7.5"/>
                <circle cx="70" cy="263.75" r="7.5"/>
                <path d="m460.59 191.25h-58.09c-2.762 0-5-2.239-5-5s2.238-5 5-5h42.085l-69.931-48.419c-2.272-1.572-2.837-4.687-1.266-6.957 1.572-2.27 4.688-2.836 6.957-1.265l83.09 57.53c1.799 1.245 2.579 3.514 1.927 5.602s-2.585 3.509-4.772 3.509z"/>
                <path d="m112.5 191.25h-58.09c-2.187 0-4.12-1.421-4.772-3.509s.128-4.357 1.926-5.602l203.09-140.62c1.712-1.186 3.981-1.186 5.692 0l85 58.85c2.271 1.572 2.837 4.687 1.266 6.957-1.572 2.271-4.688 2.836-6.957 1.265l-82.155-56.88-187.085 129.539h42.085c2.761 0 5 2.239 5 5s-2.239 5-5 5z"/>
                <path d="m111.314 191.251c-1.567 0-3.11-.734-4.084-2.11-1.596-2.254-1.064-5.375 1.19-6.97l141.19-100c2.253-1.597 5.374-1.063 6.97 1.19 1.596 2.254 1.063 5.374-1.191 6.97l-141.19 100c-.876.621-1.886.92-2.885.92z"/>
                <path d="m377.5 156.25h-35c-2.762 0-5-2.239-5-5v-75c0-2.761 2.238-5 5-5h35c2.762 0 5 2.239 5 5v75c0 2.761-2.238 5-5 5zm-30-10h25v-65h-25z"/>
                <path d="m417.5 441.25c-2.762 0-5-2.238-5-5v-20h-10c-2.762 0-5-2.238-5-5s2.238-5 5-5h15c2.762 0 5 2.238 5 5v25c0 2.762-2.238 5-5 5z"/>
                <path d="m97.5 441.25c-2.761 0-5-2.238-5-5v-25c0-2.762 2.239-5 5-5h15c2.761 0 5 2.238 5 5s-2.239 5-5 5h-10v20c0 2.762-2.239 5-5 5z"/>
                <path d="m442.5 481.25c-2.762 0-5-2.238-5-5v-35h-360v35c0 2.762-2.239 5-5 5s-5-2.238-5-5v-40c0-2.762 2.239-5 5-5h370c2.762 0 5 2.238 5 5v40c0 2.762-2.238 5-5 5z"/>
                <path d="m462.5 481.25h-410c-2.761 0-5-2.238-5-5s2.239-5 5-5h410c2.762 0 5 2.238 5 5s-2.238 5-5 5z"/>
                <path d="m452.5 276.25c-16.542 0-30-13.458-30-30s13.458-30 30-30 30 13.458 30 30-13.458 30-30 30zm0-50c-11.027 0-20 8.972-20 20s8.973 20 20 20 20-8.972 20-20-8.973-20-20-20z"/>
                <path d="m62.5 386.25c-13.785 0-25-11.215-25-25s11.215-25 25-25 25 11.215 25 25-11.215 25-25 25zm0-40c-8.271 0-15 6.728-15 15s6.729 15 15 15 15-6.728 15-15-6.729-15-15-15z"/>
                <path d="m281.641 416.25c-2.762 0-5-2.238-5-5v-70.86c0-1.46.637-2.847 1.746-3.796l35-30c2.096-1.799 5.252-1.556 7.05.542 1.797 2.097 1.554 5.253-.542 7.05l-33.254 28.504v68.56c0 2.762-2.24 5-5 5z"/>
                <path d="m330.785 321.248c-6.68 0-12.959-2.6-17.681-7.323-4.722-4.721-7.321-10.998-7.321-17.675s2.6-12.954 7.321-17.675c4.722-4.723 11.001-7.323 17.681-7.323s12.959 2.6 17.681 7.323c4.722 4.721 7.321 10.998 7.321 17.675s-2.6 12.954-7.321 17.675c-4.722 4.722-11.001 7.323-17.681 7.323zm0-39.996c-4.009 0-7.776 1.56-10.609 4.393s-4.393 6.599-4.393 10.604 1.56 7.772 4.393 10.604c2.833 2.833 6.601 4.393 10.609 4.393 4.009 0 7.776-1.56 10.609-4.393s4.393-6.599 4.393-10.604-1.56-7.772-4.393-10.604-6.6-4.393-10.609-4.393z"/>
                <path d="m231.64 416.25c-2.761 0-5-2.238-5-5v-68.56l-33.254-28.504c-2.097-1.797-2.339-4.953-.542-7.05 1.796-2.097 4.953-2.341 7.05-.542l35 30c1.108.949 1.746 2.336 1.746 3.796v70.86c0 2.762-2.239 5-5 5z"/>
                <path d="m182.5 321.248c-6.677 0-12.954-2.6-17.676-7.323-4.722-4.721-7.322-10.998-7.322-17.675s2.6-12.954 7.322-17.675c4.722-4.723 10.999-7.323 17.676-7.323s12.954 2.6 17.676 7.323c4.722 4.721 7.322 10.998 7.322 17.675s-2.6 12.954-7.322 17.675c-4.722 4.722-10.999 7.323-17.676 7.323zm0-39.996c-4.005 0-7.771 1.56-10.605 4.393-2.833 2.833-4.393 6.599-4.393 10.604s1.56 7.772 4.393 10.604c2.833 2.833 6.599 4.393 10.605 4.393s7.771-1.56 10.604-4.393 4.393-6.599 4.393-10.604-1.56-7.772-4.393-10.604-6.599-4.393-10.604-4.393z"/>
                <path d="m256.64 271.25c-13.785 0-25-11.215-25-25s11.215-25 25-25c13.786 0 25 11.215 25 25 .001 13.785-11.214 25-25 25zm0-40c-8.271 0-15 6.729-15 15s6.729 15 15 15 15-6.729 15-15c.001-8.271-6.729-15-15-15z"/>
                <path d="m256.64 416.25c-2.761 0-5-2.238-5-5v-145c0-2.762 2.239-5 5-5s5 2.238 5 5v145c.001 2.762-2.239 5-5 5z"/>
                <path d="m402.5 416.25h-290c-2.761 0-5-2.238-5-5v-225c0-2.761 2.239-5 5-5h290c2.762 0 5 2.239 5 5v225c0 2.762-2.238 5-5 5zm-285-10h280v-215h-280z"/>
                <path d="m402.5 391.25h-80c-2.762 0-5-2.238-5-5s2.238-5 5-5h80c2.762 0 5 2.238 5 5s-2.238 5-5 5z"/>
                <path d="m192.5 391.25h-80c-2.761 0-5-2.238-5-5s2.239-5 5-5h80c2.761 0 5 2.238 5 5s-2.239 5-5 5z"/>
            </g>
        </g>
    </g>
</svg>
